<?xml version="1.0" encoding="UTF-8"?>
<svg xmlns="http://www.w3.org/2000/svg" xmlns:xlink="http://www.w3.org/1999/xlink" width="1072px" height="150px" viewBox="0 0 1072 150" version="1.1">
<g id="surface1">
<path style=" stroke:none;fill-rule:nonzero;fill:rgb(25.098039%,25.098039%,25.098039%);fill-opacity:1;" d="M 1072 93.527344 C 1072 85.457031 1067.246094 81.285156 1059.890625 78.417969 C 1054.097656 76.167969 1049.015625 74.253906 1045.144531 72.785156 C 1041.289062 71.3125 1038.007812 68.753906 1038.007812 65.988281 C 1038.007812 62.210938 1042.863281 60.015625 1049.289062 60.015625 C 1056.875 60.015625 1062.839844 61.039062 1068.601562 61.542969 L 1068.773438 61.542969 C 1069.171875 61.546875 1069.554688 61.386719 1069.832031 61.101562 C 1070.109375 60.816406 1070.257812 60.429688 1070.246094 60.035156 L 1070.246094 53.800781 C 1070.246094 52.964844 1069.5625 52.371094 1068.683594 52.210938 C 1065.730469 51.527344 1058.128906 50 1049.820312 50 C 1033.617188 50 1025.898438 56.726562 1025.898438 65.988281 C 1025.898438 71.867188 1028.585938 77.667969 1036.175781 80.695312 C 1043.785156 83.726562 1059.363281 87.222656 1059.363281 93.527344 C 1059.363281 98.40625 1057.007812 101.082031 1049.25 101.082031 C 1041.195312 101.082031 1033.042969 99.984375 1029.554688 99.5625 L 1029.386719 99.5625 C 1028.488281 99.546875 1027.746094 100.265625 1027.730469 101.167969 L 1027.730469 107.222656 C 1027.730469 108.148438 1028.507812 108.734375 1029.382812 108.898438 C 1033.570312 109.828125 1041.382812 111.109375 1049.078125 111.109375 C 1066.519531 111.109375 1072 102.015625 1072 93.527344 Z M 510.707031 93.527344 C 510.707031 85.457031 505.957031 81.285156 498.597656 78.417969 C 492.804688 76.167969 487.722656 74.253906 483.851562 72.785156 C 479.996094 71.3125 476.71875 68.753906 476.71875 65.988281 C 476.71875 62.210938 481.566406 60.015625 487.992188 60.015625 C 495.585938 60.015625 501.546875 61.039062 507.304688 61.542969 L 507.476562 61.542969 C 507.875 61.546875 508.257812 61.386719 508.535156 61.101562 C 508.8125 60.816406 508.964844 60.429688 508.949219 60.035156 L 508.949219 53.800781 C 508.949219 52.964844 508.265625 52.371094 507.394531 52.210938 C 504.429688 51.527344 496.832031 50 488.519531 50 C 472.324219 50 464.597656 56.726562 464.597656 65.988281 C 464.597656 71.867188 467.285156 77.667969 474.875 80.695312 C 482.484375 83.726562 498.0625 87.222656 498.0625 93.527344 C 498.0625 98.40625 495.714844 101.082031 487.953125 101.082031 C 479.902344 101.082031 471.742188 99.984375 468.253906 99.5625 L 468.085938 99.5625 C 467.1875 99.546875 466.445312 100.265625 466.429688 101.167969 L 466.429688 107.222656 C 466.429688 108.148438 467.207031 108.734375 468.082031 108.898438 C 472.269531 109.828125 480.082031 111.109375 487.777344 111.109375 C 505.21875 111.109375 510.699219 102.015625 510.699219 93.527344 Z M 640.011719 107.066406 L 640.011719 52.277344 C 640.011719 51.34375 639.3125 50.679688 638.355469 50.679688 L 630.859375 50.679688 C 629.890625 50.679688 629.199219 51.34375 629.199219 52.277344 L 629.199219 93.777344 C 629.199219 94.273438 628.953125 94.539062 628.773438 94.539062 C 628.496094 94.539062 628.246094 94.273438 628.082031 93.859375 L 603.503906 53.378906 C 602.449219 51.179688 601.492188 50.679688 599.671875 50.679688 L 590.25 50.679688 C 588.367188 50.648438 586.8125 52.152344 586.785156 54.039062 L 586.785156 108.753906 C 586.785156 109.671875 587.542969 110.4375 588.523438 110.4375 L 595.910156 110.4375 C 596.871094 110.4375 597.574219 109.671875 597.574219 108.753906 L 597.574219 69.183594 C 597.574219 68.683594 597.757812 68.503906 598.007812 68.503906 C 598.269531 68.503906 598.542969 68.6875 598.785156 69.183594 L 622.425781 107.410156 C 623.792969 110.4375 625.632812 110.4375 627.71875 110.4375 L 636.535156 110.4375 C 638.425781 110.464844 639.984375 108.957031 640.015625 107.066406 Z M 453.226562 109.179688 L 453.226562 54.035156 C 453.1875 52.144531 451.628906 50.640625 449.738281 50.671875 L 442.589844 50.671875 C 441.226562 50.691406 439.984375 51.46875 439.371094 52.6875 L 422.664062 85.554688 C 422.21875 86.316406 422.039062 86.734375 421.703125 86.734375 C 421.335938 86.734375 421.15625 86.316406 420.730469 85.554688 L 404.011719 52.695312 C 403.398438 51.476562 402.160156 50.699219 400.792969 50.679688 L 393.644531 50.679688 C 391.757812 50.648438 390.199219 52.148438 390.15625 54.039062 L 390.15625 109.171875 C 390.15625 110.003906 390.859375 110.4375 391.652344 110.4375 L 400.4375 110.4375 C 401.226562 110.4375 401.839844 109.582031 401.839844 108.753906 L 401.839844 72.378906 C 401.839844 71.789062 401.929688 71.542969 402.101562 71.542969 C 402.179688 71.542969 402.355469 71.789062 402.542969 72.042969 L 416.703125 102.117188 C 417.203125 103.039062 418.339844 103.550781 419.480469 103.550781 L 424.007812 103.550781 C 425.140625 103.550781 426.265625 103.039062 426.777344 102.117188 L 440.84375 72.042969 C 441.03125 71.789062 441.203125 71.542969 441.269531 71.542969 C 441.457031 71.542969 441.546875 71.789062 441.546875 72.378906 L 441.546875 108.753906 C 441.546875 109.582031 442.160156 110.4375 442.9375 110.4375 L 451.734375 110.4375 C 452.523438 110.4375 453.226562 110.011719 453.226562 109.171875 Z M 562.949219 76.25 C 562.949219 65.148438 556.007812 60.183594 547.464844 60.183594 C 538.925781 60.183594 531.972656 65.148438 531.972656 76.25 L 531.972656 84.859375 C 531.972656 95.964844 538.925781 100.917969 547.464844 100.917969 C 556 100.917969 562.949219 95.964844 562.949219 84.859375 Z M 575.160156 76.25 L 575.160156 84.859375 C 575.160156 103.367188 561.84375 111.105469 547.464844 111.105469 C 533.09375 111.105469 519.785156 103.367188 519.785156 84.855469 L 519.785156 76.25 C 519.785156 57.75 533.09375 50.011719 547.464844 50.011719 C 561.84375 50.011719 575.160156 57.746094 575.160156 76.25 Z M 367.28125 76.25 C 367.28125 65.148438 360.335938 60.183594 351.792969 60.183594 C 343.257812 60.183594 336.300781 65.148438 336.300781 76.25 L 336.300781 84.859375 C 336.300781 95.964844 343.257812 100.917969 351.800781 100.917969 C 360.335938 100.917969 367.28125 95.964844 367.28125 84.859375 Z M 379.492188 76.25 L 379.492188 84.859375 C 379.492188 103.367188 366.175781 111.105469 351.792969 111.105469 C 337.425781 111.105469 324.121094 103.367188 324.121094 84.855469 L 324.121094 76.25 C 324.121094 57.75 337.425781 50.011719 351.792969 50.011719 C 366.175781 50.011719 379.492188 57.746094 379.492188 76.25 Z M 312.242188 108.75 L 312.242188 52.277344 C 312.242188 51.34375 311.445312 50.679688 310.496094 50.679688 L 301.886719 50.679688 C 300.910156 50.679688 300.125 51.34375 300.125 52.277344 L 300.125 74.121094 L 272.53125 74.121094 L 272.53125 52.277344 C 272.53125 51.34375 271.742188 50.679688 270.800781 50.679688 L 262.179688 50.679688 C 261.207031 50.679688 260.429688 51.34375 260.429688 52.277344 L 260.429688 108.753906 C 260.429688 109.671875 261.207031 110.4375 262.179688 110.4375 L 270.800781 110.4375 C 271.738281 110.445312 272.511719 109.695312 272.53125 108.753906 L 272.53125 84.382812 L 300.125 84.382812 L 300.125 108.753906 C 300.125 109.671875 300.902344 110.4375 301.886719 110.4375 L 310.496094 110.4375 C 311.441406 110.4375 312.242188 109.671875 312.242188 108.753906 Z M 901.28125 60.429688 L 883.90625 60.429688 L 883.90625 108.753906 C 883.882812 109.707031 883.09375 110.457031 882.144531 110.4375 L 873.535156 110.4375 C 872.59375 110.453125 871.816406 109.699219 871.796875 108.753906 L 871.796875 60.429688 L 854.402344 60.429688 C 853.445312 60.429688 852.652344 59.851562 852.652344 58.929688 L 852.652344 52.277344 C 852.652344 51.34375 853.445312 50.679688 854.402344 50.679688 L 901.28125 50.679688 C 902.234375 50.679688 903.023438 51.34375 903.023438 52.277344 L 903.023438 58.921875 C 903.023438 59.851562 902.234375 60.429688 901.28125 60.429688 Z M 248.582031 60.429688 L 231.207031 60.429688 L 231.207031 108.753906 C 231.183594 109.703125 230.398438 110.453125 229.453125 110.4375 L 220.84375 110.4375 C 219.898438 110.453125 219.121094 109.699219 219.105469 108.753906 L 219.105469 60.429688 L 201.703125 60.429688 C 200.753906 60.429688 199.957031 59.851562 199.957031 58.929688 L 199.957031 52.277344 C 199.957031 51.34375 200.753906 50.679688 201.703125 50.679688 L 248.582031 50.679688 C 249.542969 50.679688 250.332031 51.34375 250.332031 52.277344 L 250.332031 58.921875 C 250.332031 59.851562 249.542969 60.429688 248.585938 60.429688 Z M 844.945312 87.289062 L 844.945312 52.277344 C 844.945312 51.34375 844.160156 50.679688 843.191406 50.679688 L 834.566406 50.679688 C 833.609375 50.679688 832.832031 51.34375 832.832031 52.277344 L 832.832031 87.289062 C 832.832031 96.882812 828.246094 101.429688 818.835938 101.429688 C 809.4375 101.429688 804.84375 96.882812 804.84375 87.289062 L 804.84375 52.277344 C 804.84375 51.34375 804.066406 50.679688 803.101562 50.679688 L 794.492188 50.679688 C 793.535156 50.679688 792.742188 51.34375 792.742188 52.277344 L 792.742188 87.289062 C 792.742188 105.214844 804.816406 111.105469 818.835938 111.105469 C 832.867188 111.105469 844.941406 105.214844 844.941406 87.289062 Z M 923.0625 84.382812 L 950.949219 84.382812 C 951.886719 84.394531 952.664062 83.652344 952.691406 82.710938 L 952.691406 76.632812 C 952.664062 75.691406 951.886719 74.949219 950.949219 74.960938 L 923.0625 74.960938 L 923.0625 67.238281 C 923.0625 60.207031 923.34375 60.015625 929.929688 60.015625 L 951.992188 60.015625 C 952.9375 60.023438 953.710938 59.273438 953.734375 58.328125 L 953.734375 52.945312 C 953.734375 51.761719 953.296875 51.332031 951.992188 51.171875 C 949.199219 50.761719 943.527344 50.003906 933.164062 50.003906 C 918.703125 50.003906 911.027344 49.90625 911.027344 67.238281 L 911.027344 93.855469 C 911.027344 111.1875 918.703125 111.101562 933.164062 111.101562 C 943.527344 111.101562 949.199219 110.34375 951.992188 109.921875 C 953.296875 109.753906 953.734375 109.332031 953.734375 108.144531 L 953.734375 102.777344 C 953.710938 101.835938 952.933594 101.085938 951.992188 101.101562 L 929.929688 101.101562 C 923.34375 101.101562 923.0625 100.90625 923.0625 93.855469 Z M 750.921875 84.382812 L 778.804688 84.382812 C 779.746094 84.398438 780.527344 83.652344 780.554688 82.710938 L 780.554688 76.632812 C 780.527344 75.691406 779.746094 74.945312 778.804688 74.960938 L 750.921875 74.960938 L 750.921875 67.238281 C 750.921875 60.207031 751.199219 60.015625 757.792969 60.015625 L 779.847656 60.015625 C 780.796875 60.027344 781.574219 59.273438 781.597656 58.328125 L 781.597656 52.945312 C 781.597656 51.761719 781.15625 51.332031 779.847656 51.171875 C 777.0625 50.761719 771.382812 50.003906 761.019531 50.003906 C 746.5625 50.003906 738.890625 49.90625 738.890625 67.238281 L 738.890625 93.855469 C 738.890625 111.1875 746.5625 111.101562 761.027344 111.101562 C 771.382812 111.101562 777.0625 110.34375 779.847656 109.921875 C 781.15625 109.753906 781.597656 109.332031 781.597656 108.144531 L 781.597656 102.777344 C 781.574219 101.832031 780.792969 101.085938 779.847656 101.101562 L 757.792969 101.101562 C 751.199219 101.101562 750.921875 100.90625 750.921875 93.855469 Z M 1004.648438 69.015625 C 1004.648438 62.707031 999.574219 60.015625 990.859375 60.015625 C 989.027344 60.015625 981.097656 60.183594 979.542969 60.351562 L 979.542969 78.589844 C 980.925781 78.679688 989.367188 78.851562 990.859375 78.851562 C 999.824219 78.851562 1004.640625 77.183594 1004.640625 69.785156 Z M 1018.753906 109.433594 C 1018.753906 110.011719 1018.410156 110.433594 1017.71875 110.433594 L 1007.074219 110.433594 C 1006.121094 110.433594 1005.769531 109.582031 1005.335938 108.753906 L 992.789062 88.355469 L 990.859375 88.355469 C 988.582031 88.355469 981.546875 88.109375 979.542969 88.011719 L 979.542969 108.753906 C 979.550781 109.203125 979.375 109.632812 979.0625 109.949219 C 978.75 110.265625 978.320312 110.441406 977.875 110.4375 L 969.164062 110.4375 C 968.222656 110.449219 967.449219 109.699219 967.425781 108.753906 L 967.425781 53.609375 C 967.425781 51.929688 968.460938 51.332031 970.214844 51.089844 C 974.753906 50.421875 984.492188 50 990.859375 50 C 1004.273438 50 1016.660156 54.632812 1016.660156 69.011719 L 1016.660156 69.777344 C 1016.660156 78.679688 1012.050781 83.554688 1004.910156 86.234375 L 1018.578125 108.75 C 1018.761719 109 1018.761719 109.238281 1018.761719 109.429688 Z M 715.457031 69.015625 C 715.457031 62.707031 710.386719 60.015625 701.675781 60.015625 C 699.839844 60.015625 691.914062 60.183594 690.355469 60.351562 L 690.355469 78.589844 C 691.738281 78.679688 700.183594 78.851562 701.675781 78.851562 C 710.640625 78.851562 715.453125 77.183594 715.453125 69.785156 Z M 729.570312 109.433594 C 729.570312 110.011719 729.222656 110.433594 728.53125 110.433594 L 717.890625 110.433594 C 716.941406 110.433594 716.585938 109.582031 716.152344 108.753906 L 703.605469 88.355469 L 701.675781 88.355469 C 699.398438 88.355469 692.363281 88.109375 690.355469 88.011719 L 690.355469 108.753906 C 690.367188 109.203125 690.195312 109.632812 689.878906 109.949219 C 689.566406 110.265625 689.136719 110.445312 688.691406 110.4375 L 679.980469 110.4375 C 679.039062 110.445312 678.269531 109.695312 678.25 108.753906 L 678.25 53.609375 C 678.25 51.929688 679.277344 51.332031 681.03125 51.089844 C 685.570312 50.421875 695.304688 50 701.675781 50 C 715.089844 50 727.476562 54.632812 727.476562 69.011719 L 727.476562 69.777344 C 727.476562 78.679688 722.867188 83.554688 715.722656 86.234375 L 729.386719 108.75 C 729.570312 109 729.570312 109.238281 729.570312 109.429688 Z M 729.570312 109.433594 "/>
<path style=" stroke:none;fill-rule:nonzero;fill:rgb(98.039216%,39.215686%,0%);fill-opacity:1;" d="M 154.324219 90.707031 C 150.109375 90.707031 146.6875 94.066406 146.6875 98.222656 C 146.6875 102.367188 150.109375 105.734375 154.324219 105.734375 C 158.539062 105.734375 161.960938 102.367188 161.960938 98.222656 C 161.960938 94.066406 158.542969 90.707031 154.324219 90.707031 Z M 144.636719 110.210938 C 141.058594 110.210938 138.160156 113.066406 138.160156 116.582031 C 138.160156 120.105469 141.058594 122.960938 144.636719 122.960938 C 148.207031 122.960938 151.109375 120.105469 151.109375 116.582031 C 151.109375 113.066406 148.207031 110.210938 144.636719 110.210938 Z M 130.25 125.496094 C 128.777344 125.480469 127.359375 126.054688 126.304688 127.089844 C 125.253906 128.121094 124.65625 129.53125 124.644531 131.003906 C 124.65625 132.480469 125.253906 133.890625 126.300781 134.925781 C 127.351562 135.960938 128.769531 136.535156 130.246094 136.523438 C 131.71875 136.535156 133.140625 135.960938 134.191406 134.925781 C 135.242188 133.890625 135.839844 132.480469 135.851562 131.003906 C 135.835938 129.53125 135.242188 128.121094 134.1875 127.089844 C 133.136719 126.054688 131.71875 125.480469 130.246094 125.496094 Z M 114.097656 135.777344 C 112.902344 135.765625 111.746094 136.230469 110.890625 137.070312 C 110.039062 137.910156 109.554688 139.058594 109.542969 140.253906 C 109.542969 142.726562 111.582031 144.734375 114.097656 144.734375 C 116.613281 144.734375 118.640625 142.726562 118.640625 140.253906 C 118.625 137.765625 116.589844 135.757812 114.097656 135.777344 Z M 98.214844 141.222656 C 96.078125 141.207031 94.335938 142.921875 94.3125 145.054688 C 94.3125 147.183594 96.058594 148.90625 98.214844 148.90625 C 100.367188 148.90625 102.117188 147.183594 102.117188 145.0625 C 102.109375 144.03125 101.695312 143.050781 100.960938 142.328125 C 100.230469 141.609375 99.242188 141.207031 98.214844 141.214844 Z M 83.339844 143.382812 C 81.496094 143.367188 79.992188 144.847656 79.976562 146.6875 C 79.984375 147.574219 80.339844 148.421875 80.972656 149.042969 C 81.601562 149.664062 82.453125 150.007812 83.339844 150 C 85.179688 150.011719 86.679688 148.53125 86.691406 146.6875 C 86.679688 144.851562 85.175781 143.371094 83.339844 143.382812 Z M 68.4375 141.222656 C 67.40625 141.214844 66.417969 141.613281 65.6875 142.335938 C 64.953125 143.054688 64.539062 144.039062 64.53125 145.066406 C 64.53125 147.1875 66.28125 148.910156 68.4375 148.910156 C 70.589844 148.910156 72.339844 147.1875 72.339844 145.066406 C 72.332031 144.039062 71.917969 143.054688 71.183594 142.335938 C 70.453125 141.613281 69.464844 141.214844 68.4375 141.222656 Z M 52.550781 135.777344 C 50.050781 135.777344 48.019531 137.773438 48.019531 140.234375 C 48.019531 142.695312 50.050781 144.699219 52.550781 144.699219 C 55.054688 144.699219 57.082031 142.699219 57.082031 140.234375 C 57.082031 137.765625 55.054688 135.773438 52.550781 135.773438 Z M 36.386719 125.511719 C 33.324219 125.488281 30.820312 127.953125 30.792969 131.015625 C 30.816406 134.082031 33.320312 136.550781 36.386719 136.527344 C 39.453125 136.550781 41.960938 134.085938 41.984375 131.015625 C 41.957031 127.949219 39.453125 125.488281 36.386719 125.511719 Z M 22.019531 110.214844 C 18.441406 110.214844 15.535156 113.078125 15.535156 116.601562 C 15.535156 120.121094 18.441406 122.976562 22.019531 122.976562 C 25.59375 122.976562 28.5 120.121094 28.5 116.601562 C 28.5 113.078125 25.59375 110.214844 22.019531 110.214844 Z M 12.324219 90.6875 C 8.113281 90.6875 4.699219 94.050781 4.699219 98.199219 C 4.699219 102.351562 8.113281 105.710938 12.324219 105.710938 C 16.546875 105.710938 19.957031 102.351562 19.957031 98.199219 C 19.957031 94.050781 16.539062 90.6875 12.324219 90.6875 Z M 8.824219 66.320312 C 3.949219 66.320312 0 70.210938 0 75.011719 C 0 79.8125 3.949219 83.699219 8.832031 83.699219 C 13.703125 83.699219 17.652344 79.8125 17.652344 75.011719 C 17.652344 70.210938 13.703125 66.320312 8.824219 66.320312 Z M 12.324219 44.3125 C 8.113281 44.3125 4.699219 47.671875 4.699219 51.816406 C 4.699219 55.960938 8.113281 59.320312 12.324219 59.320312 C 16.535156 59.320312 19.945312 55.960938 19.945312 51.820312 C 19.945312 47.671875 16.535156 44.3125 12.324219 44.3125 Z M 22.007812 27.035156 C 18.429688 27.035156 15.523438 29.894531 15.523438 33.421875 C 15.523438 36.949219 18.429688 39.800781 22.007812 39.800781 C 25.589844 39.800781 28.488281 36.945312 28.488281 33.417969 C 28.488281 29.890625 25.589844 27.035156 22.007812 27.035156 Z M 36.398438 13.484375 C 33.335938 13.460938 30.832031 15.925781 30.804688 18.988281 C 30.828125 22.054688 33.332031 24.523438 36.398438 24.5 C 39.464844 24.523438 41.972656 22.058594 41.996094 18.988281 C 41.96875 15.921875 39.464844 13.457031 36.398438 13.484375 Z M 52.554688 5.304688 C 50.074219 5.285156 48.042969 7.285156 48.023438 9.765625 C 48.042969 12.25 50.074219 14.246094 52.554688 14.226562 C 55.035156 14.242188 57.0625 12.246094 57.082031 9.765625 C 57.0625 7.285156 55.039062 5.285156 52.554688 5.304688 Z M 68.425781 1.101562 C 66.269531 1.101562 64.519531 2.820312 64.519531 4.945312 C 64.519531 7.066406 66.269531 8.789062 68.425781 8.789062 C 70.589844 8.789062 72.335938 7.066406 72.335938 4.945312 C 72.335938 2.820312 70.585938 1.101562 68.425781 1.101562 Z M 83.304688 0 C 81.449219 0 79.949219 1.476562 79.949219 3.300781 C 79.949219 5.121094 81.449219 6.605469 83.304688 6.605469 C 85.15625 6.605469 86.660156 5.121094 86.660156 3.300781 C 86.660156 1.476562 85.160156 0 83.304688 0 Z M 98.230469 1.109375 C 96.089844 1.09375 94.34375 2.8125 94.324219 4.949219 C 94.324219 7.070312 96.074219 8.789062 98.230469 8.789062 C 100.378906 8.789062 102.125 7.066406 102.125 4.957031 C 102.109375 2.820312 100.367188 1.097656 98.230469 1.109375 Z M 114.097656 5.3125 C 111.597656 5.3125 109.566406 7.3125 109.566406 9.765625 C 109.566406 12.226562 111.59375 14.222656 114.097656 14.222656 C 116.597656 14.222656 118.625 12.226562 118.625 9.765625 C 118.605469 7.285156 116.578125 5.292969 114.097656 5.3125 Z M 130.234375 13.5 C 127.167969 13.476562 124.664062 15.941406 124.640625 19.003906 C 124.640625 22.042969 127.140625 24.503906 130.234375 24.503906 C 133.292969 24.527344 135.792969 22.066406 135.820312 19.003906 C 135.820312 15.964844 133.324219 13.503906 130.234375 13.503906 Z M 144.621094 27.039062 C 141.066406 27.015625 138.164062 29.871094 138.132812 33.429688 C 138.132812 36.957031 141.042969 39.816406 144.625 39.816406 C 148.179688 39.839844 151.082031 36.984375 151.113281 33.429688 C 151.082031 29.871094 148.179688 27.015625 144.625 27.039062 Z M 154.316406 44.289062 C 150.113281 44.289062 146.699219 47.648438 146.699219 51.789062 C 146.699219 55.9375 150.113281 59.300781 154.316406 59.300781 C 158.535156 59.300781 161.945312 55.9375 161.945312 51.792969 C 161.945312 47.648438 158.535156 44.289062 154.316406 44.289062 Z M 119.335938 86.484375 C 117.460938 86.472656 115.929688 87.980469 115.914062 89.855469 C 115.914062 91.722656 117.449219 93.226562 119.335938 93.226562 C 121.230469 93.226562 122.761719 91.722656 122.761719 89.855469 C 122.75 87.976562 121.214844 86.46875 119.335938 86.484375 Z M 110.78125 98.984375 C 108.90625 98.96875 107.371094 100.476562 107.355469 102.355469 C 107.355469 104.214844 108.886719 105.726562 110.78125 105.726562 C 112.675781 105.726562 114.210938 104.214844 114.210938 102.355469 C 114.195312 100.476562 112.660156 98.96875 110.78125 98.984375 Z M 98.101562 107.011719 C 96.046875 107.011719 94.378906 108.648438 94.378906 110.671875 C 94.378906 112.695312 96.046875 114.332031 98.101562 114.332031 C 100.15625 114.332031 101.824219 112.695312 101.824219 110.667969 C 101.824219 108.648438 100.15625 107.011719 98.101562 107.011719 Z M 83.105469 109.195312 C 81.785156 109.183594 80.515625 109.695312 79.574219 110.621094 C 78.632812 111.546875 78.101562 112.808594 78.089844 114.128906 C 78.089844 116.851562 80.332031 119.054688 83.097656 119.054688 C 85.867188 119.054688 88.109375 116.84375 88.109375 114.128906 C 88.101562 112.808594 87.566406 111.546875 86.628906 110.621094 C 85.6875 109.695312 84.417969 109.183594 83.097656 109.195312 Z M 68.148438 106.25 C 65.003906 106.25 62.460938 108.75 62.460938 111.84375 C 62.460938 114.933594 65.003906 117.4375 68.148438 117.4375 C 71.285156 117.4375 73.828125 114.9375 73.828125 111.84375 C 73.828125 108.75 71.285156 106.25 68.148438 106.25 Z M 54.566406 96.820312 C 51.082031 96.820312 48.261719 99.601562 48.261719 103.035156 C 48.261719 106.460938 51.082031 109.238281 54.566406 109.238281 C 58.050781 109.238281 60.871094 106.460938 60.871094 103.035156 C 60.871094 99.605469 58.050781 96.820312 54.566406 96.820312 Z M 45.625 84.210938 C 44.230469 84.199219 42.886719 84.738281 41.894531 85.71875 C 40.898438 86.695312 40.335938 88.027344 40.324219 89.421875 C 40.324219 92.300781 42.695312 94.628906 45.617188 94.628906 C 48.539062 94.628906 50.910156 92.292969 50.910156 89.421875 C 50.886719 86.523438 48.519531 84.191406 45.617188 84.210938 Z M 43.523438 70.34375 C 42.445312 70.335938 41.40625 70.757812 40.636719 71.515625 C 39.867188 72.273438 39.433594 73.304688 39.425781 74.382812 C 39.425781 76.605469 41.257812 78.417969 43.523438 78.417969 C 45.769531 78.433594 47.597656 76.628906 47.617188 74.382812 C 47.601562 72.136719 45.769531 70.328125 43.523438 70.34375 Z M 47.128906 56.792969 C 45.242188 56.777344 43.699219 58.296875 43.683594 60.183594 C 43.683594 62.050781 45.230469 63.566406 47.128906 63.566406 C 48.035156 63.574219 48.90625 63.222656 49.550781 62.585938 C 50.195312 61.949219 50.5625 61.082031 50.566406 60.179688 C 50.558594 59.273438 50.191406 58.40625 49.546875 57.773438 C 48.902344 57.136719 48.027344 56.785156 47.125 56.792969 Z M 55.683594 44.421875 C 53.808594 44.410156 52.277344 45.917969 52.261719 47.792969 C 52.261719 49.65625 53.792969 51.160156 55.6875 51.160156 C 57.578125 51.160156 59.109375 49.65625 59.109375 47.792969 C 59.09375 45.917969 57.5625 44.410156 55.6875 44.421875 Z M 68.347656 35.753906 C 66.296875 35.753906 64.632812 37.398438 64.632812 39.421875 C 64.632812 41.445312 66.296875 43.082031 68.351562 43.082031 C 70.40625 43.082031 72.074219 41.445312 72.074219 39.417969 C 72.074219 37.390625 70.40625 35.753906 68.351562 35.753906 Z M 83.34375 31.027344 C 80.621094 31.007812 78.394531 33.199219 78.371094 35.921875 C 78.371094 38.628906 80.59375 40.820312 83.34375 40.820312 C 84.652344 40.835938 85.914062 40.324219 86.847656 39.40625 C 87.78125 38.484375 88.3125 37.234375 88.320312 35.921875 C 88.320312 33.214844 86.09375 31.027344 83.34375 31.027344 Z M 98.339844 32.648438 C 95.214844 32.648438 92.675781 35.148438 92.675781 38.226562 C 92.675781 41.304688 95.214844 43.804688 98.339844 43.804688 C 101.472656 43.804688 104.007812 41.304688 104.007812 38.226562 C 104.007812 35.148438 101.472656 32.648438 98.339844 32.648438 Z M 111.855469 40.828125 C 108.367188 40.828125 105.539062 43.617188 105.539062 47.050781 C 105.539062 50.484375 108.367188 53.273438 111.855469 53.273438 C 115.34375 53.273438 118.175781 50.484375 118.175781 47.050781 C 118.175781 43.617188 115.34375 40.828125 111.855469 40.828125 Z M 120.8125 55.4375 C 119.421875 55.425781 118.082031 55.96875 117.089844 56.945312 C 116.097656 57.921875 115.535156 59.253906 115.527344 60.644531 C 115.527344 63.515625 117.890625 65.84375 120.8125 65.84375 C 123.730469 65.84375 126.097656 63.511719 126.097656 60.644531 C 126.074219 57.746094 123.710938 55.417969 120.8125 55.4375 Z M 107.050781 78.292969 C 105.300781 78.292969 103.882812 79.6875 103.882812 81.40625 C 103.882812 83.121094 105.300781 84.515625 107.050781 84.515625 C 108.792969 84.515625 110.210938 83.128906 110.210938 81.40625 C 110.210938 79.683594 108.792969 78.292969 107.042969 78.292969 Z M 100.914062 87.917969 C 98.335938 87.894531 96.230469 89.96875 96.207031 92.542969 C 96.207031 95.101562 98.320312 97.171875 100.914062 97.171875 C 103.507812 97.171875 105.613281 95.101562 105.613281 92.542969 C 105.589844 89.96875 103.488281 87.898438 100.914062 87.917969 Z M 88.820312 94.210938 C 86.125 94.191406 83.921875 96.359375 83.898438 99.054688 C 83.898438 101.734375 86.105469 103.90625 88.820312 103.90625 C 91.535156 103.90625 93.746094 101.738281 93.746094 99.054688 C 93.722656 96.359375 91.519531 94.191406 88.820312 94.210938 Z M 74.671875 93.855469 C 72.28125 93.835938 70.324219 95.761719 70.308594 98.15625 C 70.328125 100.546875 72.28125 102.46875 74.671875 102.449219 C 77.0625 102.46875 79.019531 100.546875 79.039062 98.15625 C 79.019531 95.761719 77.066406 93.835938 74.671875 93.855469 Z M 64.160156 86.839844 C 62.402344 86.824219 60.96875 88.234375 60.953125 89.988281 C 60.953125 91.734375 62.386719 93.144531 64.160156 93.144531 C 65.003906 93.152344 65.8125 92.824219 66.414062 92.230469 C 67.015625 91.640625 67.359375 90.832031 67.363281 89.988281 C 67.347656 88.234375 65.914062 86.824219 64.160156 86.839844 Z M 59.980469 77.746094 C 58.707031 77.734375 57.667969 78.761719 57.660156 80.035156 C 57.660156 81.292969 58.703125 82.320312 59.980469 82.320312 C 60.59375 82.328125 61.1875 82.09375 61.625 81.664062 C 62.0625 81.234375 62.308594 80.648438 62.316406 80.035156 C 62.308594 79.417969 62.0625 78.832031 61.625 78.402344 C 61.1875 77.972656 60.59375 77.738281 59.980469 77.746094 Z M 59.742188 65.894531 C 58.910156 65.886719 58.109375 66.207031 57.515625 66.792969 C 56.921875 67.375 56.582031 68.171875 56.578125 69.003906 C 56.578125 70.722656 57.992188 72.117188 59.742188 72.117188 C 61.488281 72.117188 62.898438 70.722656 62.898438 69.003906 C 62.898438 67.285156 61.488281 65.894531 59.742188 65.894531 Z M 65.898438 53.210938 C 63.332031 53.191406 61.234375 55.253906 61.210938 57.820312 C 61.210938 60.378906 63.308594 62.445312 65.898438 62.445312 C 68.464844 62.464844 70.5625 60.398438 70.585938 57.828125 C 70.5625 55.257812 68.464844 53.191406 65.898438 53.210938 Z M 77.917969 46.464844 C 75.195312 46.464844 72.984375 48.640625 72.984375 51.320312 C 72.984375 54.003906 75.191406 56.171875 77.917969 56.171875 C 80.640625 56.171875 82.84375 54.003906 82.84375 51.320312 C 82.84375 48.640625 80.640625 46.464844 77.917969 46.464844 Z M 92.101562 48.015625 C 90.953125 48.003906 89.84375 48.453125 89.023438 49.257812 C 88.203125 50.066406 87.734375 51.164062 87.726562 52.316406 C 87.726562 54.695312 89.6875 56.621094 92.101562 56.621094 C 94.5 56.640625 96.457031 54.714844 96.472656 52.316406 C 96.464844 51.167969 96 50.066406 95.179688 49.261719 C 94.359375 48.453125 93.253906 48.007812 92.101562 48.015625 Z M 102.554688 57.171875 C 100.804688 57.160156 99.371094 58.570312 99.355469 60.320312 C 99.355469 62.066406 100.789062 63.476562 102.554688 63.476562 C 104.324219 63.476562 105.761719 62.066406 105.761719 60.320312 C 105.746094 58.566406 104.3125 57.15625 102.554688 57.171875 Z M 106.960938 68.070312 C 106.347656 68.066406 105.757812 68.304688 105.320312 68.734375 C 104.882812 69.164062 104.632812 69.753906 104.628906 70.367188 C 104.628906 71.628906 105.671875 72.65625 106.960938 72.65625 C 108.238281 72.65625 109.289062 71.628906 109.289062 70.367188 C 109.285156 69.753906 109.035156 69.164062 108.597656 68.734375 C 108.160156 68.304688 107.570312 68.066406 106.957031 68.070312 Z M 122.875 71.671875 C 120.601562 71.671875 118.765625 73.488281 118.765625 75.726562 C 118.765625 77.960938 120.601562 79.773438 122.875 79.773438 C 125.152344 79.773438 126.984375 77.960938 126.984375 75.722656 C 126.964844 73.46875 125.128906 71.65625 122.875 71.671875 Z M 139.847656 76.578125 C 137.472656 76.558594 135.535156 78.46875 135.515625 80.84375 C 135.515625 83.199219 137.449219 85.109375 139.847656 85.109375 C 142.238281 85.109375 144.179688 83.199219 144.179688 80.84375 C 144.164062 78.46875 142.222656 76.558594 139.847656 76.578125 Z M 135.550781 91.644531 C 133.300781 91.625 131.464844 93.433594 131.445312 95.683594 C 131.445312 97.917969 133.277344 99.722656 135.550781 99.722656 C 137.820312 99.722656 139.65625 97.917969 139.65625 95.683594 C 139.644531 94.601562 139.207031 93.570312 138.4375 92.8125 C 137.664062 92.054688 136.625 91.632812 135.542969 91.644531 Z M 128.164062 104.289062 C 126.261719 104.273438 124.710938 105.800781 124.695312 107.699219 C 124.695312 109.582031 126.246094 111.109375 128.15625 111.109375 C 130.054688 111.125 131.609375 109.597656 131.621094 107.699219 C 131.609375 105.800781 130.054688 104.273438 128.15625 104.289062 Z M 119.292969 113.683594 C 117.65625 113.675781 116.320312 114.992188 116.304688 116.628906 C 116.304688 118.253906 117.636719 119.578125 119.292969 119.578125 C 120.933594 119.59375 122.277344 118.273438 122.292969 116.632812 C 122.277344 114.992188 120.933594 113.671875 119.292969 113.6875 Z M 109.925781 120.539062 C 109.25 120.53125 108.601562 120.796875 108.121094 121.269531 C 107.636719 121.746094 107.367188 122.390625 107.359375 123.066406 C 107.359375 124.457031 108.511719 125.589844 109.925781 125.589844 C 111.332031 125.601562 112.480469 124.472656 112.492188 123.066406 C 112.488281 122.390625 112.214844 121.746094 111.734375 121.269531 C 111.253906 120.796875 110.601562 120.53125 109.925781 120.539062 Z M 99.328125 124.410156 C 97.691406 124.398438 96.351562 125.71875 96.339844 127.355469 C 96.339844 128.976562 97.675781 130.292969 99.328125 130.292969 C 100.117188 130.300781 100.871094 129.992188 101.429688 129.441406 C 101.992188 128.886719 102.308594 128.136719 102.3125 127.351562 C 102.3125 125.726562 100.980469 124.410156 99.328125 124.410156 Z M 86.871094 126.410156 C 84.980469 126.398438 83.4375 127.921875 83.425781 129.8125 C 83.425781 131.683594 84.972656 133.207031 86.871094 133.207031 C 87.777344 133.214844 88.652344 132.863281 89.300781 132.226562 C 89.949219 131.589844 90.320312 130.71875 90.324219 129.8125 C 90.320312 128.902344 89.953125 128.03125 89.304688 127.394531 C 88.65625 126.753906 87.78125 126.402344 86.871094 126.410156 Z M 72.625 125.023438 C 70.164062 125.003906 68.152344 126.984375 68.136719 129.445312 C 68.136719 131.882812 70.148438 133.859375 72.625 133.859375 C 75.101562 133.859375 77.113281 131.882812 77.113281 129.445312 C 77.101562 128.261719 76.625 127.132812 75.78125 126.304688 C 74.941406 125.476562 73.804688 125.015625 72.625 125.027344 Z M 57.644531 119.726562 C 54.742188 119.707031 52.371094 122.039062 52.34375 124.945312 C 52.34375 127.828125 54.714844 130.167969 57.644531 130.167969 C 60.570312 130.167969 62.941406 127.828125 62.941406 124.945312 C 62.921875 122.039062 60.546875 119.699219 57.644531 119.722656 Z M 44.367188 109.929688 C 40.9375 109.929688 38.148438 112.671875 38.148438 116.054688 C 38.148438 119.445312 40.9375 122.183594 44.367188 122.183594 C 47.8125 122.183594 50.59375 119.4375 50.59375 116.054688 C 50.59375 112.667969 47.8125 109.929688 44.375 109.929688 Z M 33.359375 95.140625 C 29.636719 95.140625 26.621094 98.109375 26.621094 101.773438 C 26.621094 105.4375 29.636719 108.410156 33.359375 108.410156 C 37.082031 108.410156 40.101562 105.4375 40.101562 101.773438 C 40.101562 98.105469 37.085938 95.140625 33.359375 95.140625 Z M 27.105469 79.75 C 24.199219 79.726562 21.820312 82.0625 21.796875 84.972656 C 21.796875 87.859375 24.171875 90.195312 27.105469 90.195312 C 30.011719 90.214844 32.386719 87.878906 32.414062 84.972656 C 32.414062 82.082031 30.039062 79.75 27.105469 79.75 Z M 26.804688 64.878906 C 24.421875 64.859375 22.472656 66.777344 22.449219 69.160156 C 22.449219 71.535156 24.394531 73.449219 26.804688 73.449219 C 29.191406 73.46875 31.140625 71.546875 31.160156 69.160156 C 31.140625 66.777344 29.191406 64.859375 26.804688 64.878906 Z M 31.082031 50.277344 C 30 50.269531 28.960938 50.691406 28.191406 51.449219 C 27.421875 52.207031 26.984375 53.242188 26.976562 54.320312 C 26.976562 56.550781 28.8125 58.359375 31.089844 58.359375 C 33.355469 58.359375 35.191406 56.550781 35.191406 54.320312 C 35.175781 52.070312 33.335938 50.257812 31.082031 50.277344 Z M 38.492188 38.917969 C 37.582031 38.910156 36.707031 39.265625 36.058594 39.902344 C 35.410156 40.542969 35.042969 41.414062 35.039062 42.320312 C 35.039062 44.199219 36.585938 45.722656 38.492188 45.722656 C 40.382812 45.738281 41.929688 44.214844 41.945312 42.320312 C 41.941406 41.414062 41.574219 40.542969 40.925781 39.902344 C 40.277344 39.265625 39.402344 38.910156 38.492188 38.917969 Z M 47.347656 30.449219 C 45.710938 30.4375 44.375 31.753906 44.363281 33.390625 C 44.363281 35.011719 45.695312 36.328125 47.347656 36.328125 C 48.980469 36.339844 50.316406 35.023438 50.328125 33.390625 C 50.316406 31.753906 48.980469 30.4375 47.347656 30.449219 Z M 56.710938 24.398438 C 55.300781 24.390625 54.152344 25.523438 54.140625 26.933594 C 54.152344 28.339844 55.304688 29.46875 56.710938 29.460938 C 58.117188 29.46875 59.265625 28.339844 59.28125 26.933594 C 59.269531 25.523438 58.121094 24.390625 56.710938 24.398438 Z M 67.320312 19.738281 C 65.6875 19.726562 64.355469 21.039062 64.34375 22.671875 C 64.34375 24.289062 65.675781 25.605469 67.324219 25.605469 C 68.957031 25.613281 70.285156 24.304688 70.300781 22.671875 C 70.289062 21.039062 68.957031 19.726562 67.324219 19.738281 Z M 79.738281 16.792969 C 77.84375 16.78125 76.296875 18.304688 76.277344 20.199219 C 76.277344 22.082031 77.832031 23.605469 79.738281 23.605469 C 81.636719 23.621094 83.1875 22.097656 83.203125 20.199219 C 83.191406 18.300781 81.636719 16.773438 79.738281 16.789062 Z M 94.015625 16.171875 C 91.53125 16.171875 89.519531 18.148438 89.519531 20.589844 C 89.519531 23.027344 91.53125 25.015625 94.015625 25.015625 C 96.496094 25.015625 98.507812 23.035156 98.507812 20.589844 C 98.507812 18.144531 96.496094 16.171875 94.015625 16.171875 Z M 108.578125 19.5625 C 105.671875 19.542969 103.296875 21.878906 103.265625 24.785156 C 103.265625 27.671875 105.644531 30.015625 108.578125 30.015625 C 111.488281 30.039062 113.867188 27.695312 113.886719 24.785156 C 113.859375 21.875 111.484375 19.539062 108.578125 19.5625 Z M 122.332031 27.777344 C 118.886719 27.777344 116.097656 30.527344 116.097656 33.910156 C 116.097656 37.292969 118.890625 40.050781 122.332031 40.050781 C 125.773438 40.050781 128.5625 37.300781 128.5625 33.910156 C 128.5625 30.523438 125.773438 27.777344 122.332031 27.777344 Z M 133.261719 41.601562 C 129.539062 41.601562 126.519531 44.570312 126.519531 48.234375 C 126.519531 51.898438 129.535156 54.871094 133.261719 54.871094 C 136.988281 54.871094 140.003906 51.898438 140.003906 48.234375 C 140.003906 44.566406 136.988281 41.601562 133.261719 41.601562 Z M 139.519531 59.816406 C 136.59375 59.816406 134.222656 62.148438 134.222656 65.039062 C 134.222656 67.929688 136.59375 70.253906 139.519531 70.253906 C 142.453125 70.253906 144.824219 67.921875 144.824219 65.035156 C 144.824219 62.144531 142.453125 59.8125 139.519531 59.8125 Z M 166.632812 75.011719 C 166.632812 79.8125 162.683594 83.699219 157.800781 83.699219 C 152.929688 83.699219 148.980469 79.8125 148.980469 75.011719 C 148.980469 70.210938 152.929688 66.320312 157.804688 66.320312 C 162.683594 66.320312 166.632812 70.210938 166.632812 75.011719 Z M 166.632812 75.011719 "/>
</g>
</svg>
